<svg xmlns="http://www.w3.org/2000/svg" xmlns:xlink="http://www.w3.org/1999/xlink" width="394" zoomAndPan="magnify" viewBox="0 0 295.5 257.99999" height="344" preserveAspectRatio="xMidYMid meet" version="1.0"><defs><g/><clipPath id="1d11d70084"><path d="M 72.941406 0.21875 L 223.4375 0.21875 L 223.4375 125.257812 L 72.941406 125.257812 Z M 72.941406 0.21875 " clip-rule="nonzero"/></clipPath><clipPath id="e4abc1cc11"><path d="M 116 48 L 195 48 L 195 125.257812 L 116 125.257812 Z M 116 48 " clip-rule="nonzero"/></clipPath></defs><g clip-path="url(#1d11d70084)"><path fill="#6a0032" d="M 148.097656 0.21875 L 72.972656 125.351562 L 165.695312 125.351562 L 156.121094 109.402344 L 101.148438 109.402344 L 148.097656 31.199219 L 204.625 125.351562 L 223.226562 125.351562 Z M 148.097656 0.21875 " fill-opacity="1" fill-rule="nonzero"/></g><g clip-path="url(#e4abc1cc11)"><path fill="#6a0032" d="M 194.460938 125.351562 L 148.097656 48.128906 L 116.542969 100.6875 L 135.144531 100.6875 L 148.097656 79.113281 L 175.859375 125.351562 Z M 194.460938 125.351562 " fill-opacity="1" fill-rule="nonzero"/></g><g fill="#6a0032" fill-opacity="1"><g transform="translate(92.819972, 114.176639)"><g><path d="M 1.578125 1.21875 L 0.03125 1.21875 L 3.21875 -9.046875 L 4.765625 -9.046875 Z M 1.578125 1.21875 "/></g></g></g><g fill="#6a0032" fill-opacity="1"><g transform="translate(11.773955, 176.13971)"><g><path d="M 21.5 -6.140625 C 22.5625 -6.140625 23.296875 -6.238281 23.703125 -6.4375 L 23.8125 -6.421875 L 23.546875 0 L 4.40625 0 L 4.40625 -34.1875 C 4.863281 -34.15625 5.375 -34.128906 5.9375 -34.109375 L 7.71875 -34.0625 C 8.914062 -34.03125 10.210938 -34.015625 11.609375 -34.015625 C 15.515625 -34.015625 19.378906 -34.082031 23.203125 -34.21875 C 23.015625 -32.71875 22.921875 -30.710938 22.921875 -28.203125 C 22.921875 -27.929688 22.9375 -27.726562 22.96875 -27.59375 L 22.921875 -27.515625 C 22.023438 -27.773438 20.757812 -27.90625 19.125 -27.90625 L 11.078125 -27.90625 L 11.078125 -21.375 L 17.140625 -21.375 C 19.015625 -21.375 20.140625 -21.425781 20.515625 -21.53125 L 20.59375 -15.21875 C 19.769531 -15.300781 18.710938 -15.34375 17.421875 -15.34375 L 11.078125 -15.34375 L 11.078125 -6.140625 Z M 21.5 -6.140625 "/></g></g></g><g fill="#6a0032" fill-opacity="1"><g transform="translate(38.015094, 176.13971)"><g><path d="M 6.875 0.203125 C 5.414062 0.0664062 3.703125 0 1.734375 0 L -0.28125 0 L 10.84375 -31.171875 C 11.332031 -32.566406 11.578125 -33.378906 11.578125 -33.609375 C 11.578125 -33.847656 11.570312 -33.988281 11.5625 -34.03125 L 11.578125 -34.09375 C 12.691406 -34.039062 13.867188 -34.015625 15.109375 -34.015625 C 16.140625 -34.015625 17.367188 -34.03125 18.796875 -34.0625 L 18.828125 -34.015625 C 18.785156 -33.941406 18.765625 -33.847656 18.765625 -33.734375 C 18.765625 -33.410156 19.019531 -32.550781 19.53125 -31.15625 L 30.890625 0.078125 C 30.546875 0.0546875 30.144531 0.046875 29.6875 0.046875 C 29.6875 0.046875 29.242188 0.03125 28.359375 0 C 27.929688 0 27.546875 0 27.203125 0 L 23.25 0 L 20.84375 -7.359375 L 9.28125 -7.359375 Z M 18.84375 -13.5 L 14.984375 -25.390625 L 11.234375 -13.5 Z M 18.84375 -13.5 "/></g></g></g><g fill="#6a0032" fill-opacity="1"><g transform="translate(68.629762, 176.13971)"><g><path d="M 24.9375 -32.125 L 24.453125 -24.609375 L 24.265625 -24.546875 C 23.003906 -26.441406 20.859375 -27.671875 17.828125 -28.234375 C 16.867188 -28.421875 15.953125 -28.515625 15.078125 -28.515625 C 14.203125 -28.515625 13.453125 -28.4375 12.828125 -28.28125 C 12.203125 -28.125 11.671875 -27.90625 11.234375 -27.625 C 10.296875 -27.007812 9.828125 -26.207031 9.828125 -25.21875 C 9.828125 -23.914062 10.234375 -22.941406 11.046875 -22.296875 C 12.066406 -21.515625 13.757812 -20.960938 16.125 -20.640625 C 18.5 -20.328125 20.398438 -19.898438 21.828125 -19.359375 C 23.265625 -18.816406 24.445312 -18.125 25.375 -17.28125 C 27.113281 -15.71875 27.984375 -13.503906 27.984375 -10.640625 C 27.984375 -6.890625 26.566406 -4 23.734375 -1.96875 C 21.304688 -0.226562 18.253906 0.640625 14.578125 0.640625 C 11.609375 0.640625 8.675781 0.078125 5.78125 -1.046875 C 4.820312 -1.421875 3.988281 -1.859375 3.28125 -2.359375 L 3.5625 -10.890625 L 3.65625 -10.96875 C 5.769531 -7.320312 9.238281 -5.5 14.0625 -5.5 C 17.488281 -5.5 19.757812 -6.328125 20.875 -7.984375 C 21.25 -8.546875 21.4375 -9.171875 21.4375 -9.859375 C 21.4375 -10.546875 21.320312 -11.113281 21.09375 -11.5625 C 20.875 -12.019531 20.507812 -12.410156 20 -12.734375 C 19.007812 -13.378906 17.347656 -13.8125 15.015625 -14.03125 C 12.679688 -14.257812 10.769531 -14.679688 9.28125 -15.296875 C 7.800781 -15.910156 6.617188 -16.664062 5.734375 -17.5625 C 4.128906 -19.207031 3.328125 -21.492188 3.328125 -24.421875 C 3.328125 -27.453125 4.390625 -29.90625 6.515625 -31.78125 C 8.679688 -33.695312 11.601562 -34.65625 15.28125 -34.65625 C 18.957031 -34.65625 22.175781 -33.8125 24.9375 -32.125 Z M 24.9375 -32.125 "/></g></g></g><g fill="#6a0032" fill-opacity="1"><g transform="translate(99.142126, 176.13971)"><g><path d="M 16.671875 0.15625 C 15.859375 0.0507812 13.753906 0 10.359375 0 L 9.53125 0 L 9.53125 -28.28125 L 4.46875 -28.28125 C 2.96875 -28.28125 2.082031 -28.203125 1.8125 -28.046875 C 1.539062 -27.898438 1.328125 -27.765625 1.171875 -27.640625 L 1.09375 -27.671875 L 1.09375 -34.21875 L 1.171875 -34.296875 C 1.734375 -34.109375 3.253906 -34.015625 5.734375 -34.015625 L 21.765625 -34.015625 C 23.265625 -34.015625 24.148438 -34.085938 24.421875 -34.234375 C 24.691406 -34.390625 24.90625 -34.53125 25.0625 -34.65625 L 25.140625 -34.625 L 25.140625 -28.078125 L 25.0625 -28 C 24.5 -28.1875 22.984375 -28.28125 20.515625 -28.28125 L 16.671875 -28.28125 Z M 16.671875 0.15625 "/></g></g></g><g fill="#6a0032" fill-opacity="1"><g transform="translate(125.383265, 176.13971)"><g/></g></g><g fill="#6a0032" fill-opacity="1"><g transform="translate(142.749483, 176.13971)"><g><path d="M 12.6875 0.640625 C 9.925781 0.640625 7.328125 0.414062 4.890625 -0.03125 L 4.890625 -34.25 C 7.140625 -34.519531 9.75 -34.65625 12.71875 -34.65625 C 15.695312 -34.65625 18.390625 -34.25 20.796875 -33.4375 C 23.210938 -32.625 25.234375 -31.46875 26.859375 -29.96875 C 30.128906 -26.96875 31.765625 -22.765625 31.765625 -17.359375 C 31.765625 -11.304688 29.941406 -6.710938 26.296875 -3.578125 C 23.015625 -0.765625 18.476562 0.640625 12.6875 0.640625 Z M 11.53125 -5.59375 C 12.644531 -5.394531 13.753906 -5.296875 14.859375 -5.296875 C 15.960938 -5.296875 17.15625 -5.507812 18.4375 -5.9375 C 19.71875 -6.375 20.828125 -7.054688 21.765625 -7.984375 C 23.773438 -9.921875 24.78125 -12.75 24.78125 -16.46875 C 24.78125 -22.570312 22.554688 -26.320312 18.109375 -27.71875 C 16.640625 -28.175781 14.941406 -28.40625 13.015625 -28.40625 L 12.328125 -28.40625 C 12.066406 -28.40625 11.800781 -28.398438 11.53125 -28.390625 Z M 11.53125 -5.59375 "/></g></g></g><g fill="#6a0032" fill-opacity="1"><g transform="translate(177.635364, 176.13971)"><g><path d="M 21.5 -6.140625 C 22.5625 -6.140625 23.296875 -6.238281 23.703125 -6.4375 L 23.8125 -6.421875 L 23.546875 0 L 4.40625 0 L 4.40625 -34.1875 C 4.863281 -34.15625 5.375 -34.128906 5.9375 -34.109375 L 7.71875 -34.0625 C 8.914062 -34.03125 10.210938 -34.015625 11.609375 -34.015625 C 15.515625 -34.015625 19.378906 -34.082031 23.203125 -34.21875 C 23.015625 -32.71875 22.921875 -30.710938 22.921875 -28.203125 C 22.921875 -27.929688 22.9375 -27.726562 22.96875 -27.59375 L 22.921875 -27.515625 C 22.023438 -27.773438 20.757812 -27.90625 19.125 -27.90625 L 11.078125 -27.90625 L 11.078125 -21.375 L 17.140625 -21.375 C 19.015625 -21.375 20.140625 -21.425781 20.515625 -21.53125 L 20.59375 -15.21875 C 19.769531 -15.300781 18.710938 -15.34375 17.421875 -15.34375 L 11.078125 -15.34375 L 11.078125 -6.140625 Z M 21.5 -6.140625 "/></g></g></g><g fill="#6a0032" fill-opacity="1"><g transform="translate(203.876503, 176.13971)"><g><path d="M 9.390625 0 C 6.878906 0 5.21875 0.0507812 4.40625 0.15625 L 4.40625 -34.171875 C 4.8125 -34.066406 5.65625 -34.015625 6.9375 -34.015625 C 8.226562 -34.015625 9.726562 -34.046875 11.4375 -34.109375 L 11.4375 -6.140625 L 16.71875 -6.140625 C 18.257812 -6.140625 19.488281 -6.191406 20.40625 -6.296875 C 20.289062 -2.304688 20.234375 -0.234375 20.234375 -0.078125 L 20.234375 0.171875 C 18.554688 0.0546875 15.75 0 11.8125 0 Z M 9.390625 0 "/></g></g></g><g fill="#6a0032" fill-opacity="1"><g transform="translate(225.744137, 176.13971)"><g><path d="M 16.671875 0.15625 C 15.859375 0.0507812 13.753906 0 10.359375 0 L 9.53125 0 L 9.53125 -28.28125 L 4.46875 -28.28125 C 2.96875 -28.28125 2.082031 -28.203125 1.8125 -28.046875 C 1.539062 -27.898438 1.328125 -27.765625 1.171875 -27.640625 L 1.09375 -27.671875 L 1.09375 -34.21875 L 1.171875 -34.296875 C 1.734375 -34.109375 3.253906 -34.015625 5.734375 -34.015625 L 21.765625 -34.015625 C 23.265625 -34.015625 24.148438 -34.085938 24.421875 -34.234375 C 24.691406 -34.390625 24.90625 -34.53125 25.0625 -34.65625 L 25.140625 -34.625 L 25.140625 -28.078125 L 25.0625 -28 C 24.5 -28.1875 22.984375 -28.28125 20.515625 -28.28125 L 16.671875 -28.28125 Z M 16.671875 0.15625 "/></g></g></g><g fill="#6a0032" fill-opacity="1"><g transform="translate(251.985288, 176.13971)"><g><path d="M 6.875 0.203125 C 5.414062 0.0664062 3.703125 0 1.734375 0 L -0.28125 0 L 10.84375 -31.171875 C 11.332031 -32.566406 11.578125 -33.378906 11.578125 -33.609375 C 11.578125 -33.847656 11.570312 -33.988281 11.5625 -34.03125 L 11.578125 -34.09375 C 12.691406 -34.039062 13.867188 -34.015625 15.109375 -34.015625 C 16.140625 -34.015625 17.367188 -34.03125 18.796875 -34.0625 L 18.828125 -34.015625 C 18.785156 -33.941406 18.765625 -33.847656 18.765625 -33.734375 C 18.765625 -33.410156 19.019531 -32.550781 19.53125 -31.15625 L 30.890625 0.078125 C 30.546875 0.0546875 30.144531 0.046875 29.6875 0.046875 C 29.6875 0.046875 29.242188 0.03125 28.359375 0 C 27.929688 0 27.546875 0 27.203125 0 L 23.25 0 L 20.84375 -7.359375 L 9.28125 -7.359375 Z M 18.84375 -13.5 L 14.984375 -25.390625 L 11.234375 -13.5 Z M 18.84375 -13.5 "/></g></g></g><g fill="#6a0032" fill-opacity="1"><g transform="translate(83.715852, 232.24604)"><g><path d="M 9.796875 0.140625 C 8.378906 0.046875 6.695312 0 4.75 0 L 4.03125 0 L 4.03125 -29.609375 C 4.945312 -29.535156 5.597656 -29.5 5.984375 -29.5 L 6.890625 -29.5 C 8.066406 -29.5 9.035156 -29.554688 9.796875 -29.671875 L 9.796875 -17.859375 L 20.234375 -17.859375 L 20.234375 -29.609375 C 21.453125 -29.535156 22.640625 -29.5 23.796875 -29.5 C 24.960938 -29.5 25.695312 -29.554688 26 -29.671875 L 26 0.140625 C 25.28125 0.046875 23.875 0 21.78125 0 L 20.234375 0 L 20.234375 -12.53125 L 9.796875 -12.53125 Z M 9.796875 0.140625 "/></g></g></g><g fill="#6a0032" fill-opacity="1"><g transform="translate(113.963178, 232.24604)"><g><path d="M 6.234375 -3.5 C 4.890625 -4.789062 3.828125 -6.335938 3.046875 -8.140625 C 2.273438 -9.941406 1.890625 -11.914062 1.890625 -14.0625 C 1.890625 -16.21875 2.25 -18.253906 2.96875 -20.171875 C 3.695312 -22.097656 4.734375 -23.789062 6.078125 -25.25 C 7.421875 -26.71875 9.046875 -27.882812 10.953125 -28.75 C 12.859375 -29.613281 14.992188 -30.046875 17.359375 -30.046875 C 21.441406 -30.046875 24.878906 -28.757812 27.671875 -26.1875 C 30.660156 -23.4375 32.15625 -19.726562 32.15625 -15.0625 C 32.15625 -10.53125 30.617188 -6.765625 27.546875 -3.765625 C 25.648438 -1.921875 23.394531 -0.648438 20.78125 0.046875 C 19.5 0.378906 17.992188 0.546875 16.265625 0.546875 C 14.546875 0.546875 12.78125 0.191406 10.96875 -0.515625 C 9.15625 -1.222656 7.578125 -2.21875 6.234375 -3.5 Z M 8.046875 -14.375 C 8.046875 -13 8.273438 -11.734375 8.734375 -10.578125 C 9.191406 -9.421875 9.828125 -8.429688 10.640625 -7.609375 C 12.367188 -5.859375 14.597656 -4.984375 17.328125 -4.984375 C 19.910156 -4.984375 21.984375 -5.820312 23.546875 -7.5 C 25.148438 -9.226562 25.953125 -11.585938 25.953125 -14.578125 C 25.953125 -17.378906 25.191406 -19.722656 23.671875 -21.609375 C 22.023438 -23.617188 19.773438 -24.625 16.921875 -24.625 C 14.160156 -24.625 11.960938 -23.601562 10.328125 -21.5625 C 8.804688 -19.65625 8.046875 -17.257812 8.046875 -14.375 Z M 8.046875 -14.375 "/></g></g></g><g fill="#6a0032" fill-opacity="1"><g transform="translate(148.002508, 232.24604)"><g><path d="M 14.453125 0.140625 C 13.742188 0.046875 11.921875 0 8.984375 0 L 8.265625 0 L 8.265625 -24.53125 L 3.875 -24.53125 C 2.570312 -24.53125 1.800781 -24.460938 1.5625 -24.328125 C 1.332031 -24.191406 1.148438 -24.070312 1.015625 -23.96875 L 0.953125 -24 L 0.953125 -29.671875 L 1.015625 -29.734375 C 1.503906 -29.578125 2.820312 -29.5 4.96875 -29.5 L 18.875 -29.5 C 20.175781 -29.5 20.941406 -29.5625 21.171875 -29.6875 C 21.410156 -29.820312 21.597656 -29.941406 21.734375 -30.046875 L 21.796875 -30.03125 L 21.796875 -24.359375 L 21.734375 -24.28125 C 21.242188 -24.445312 19.925781 -24.53125 17.78125 -24.53125 L 14.453125 -24.53125 Z M 14.453125 0.140625 "/></g></g></g><g fill="#6a0032" fill-opacity="1"><g transform="translate(170.75453, 232.24604)"><g><path d="M 18.65625 -5.328125 C 19.570312 -5.328125 20.207031 -5.414062 20.5625 -5.59375 L 20.640625 -5.5625 L 20.421875 0 L 3.8125 0 L 3.8125 -29.65625 C 4.207031 -29.625 4.648438 -29.601562 5.140625 -29.59375 L 6.703125 -29.546875 C 7.734375 -29.515625 8.851562 -29.5 10.0625 -29.5 C 13.445312 -29.5 16.796875 -29.554688 20.109375 -29.671875 C 19.953125 -28.367188 19.875 -26.632812 19.875 -24.46875 C 19.875 -24.226562 19.890625 -24.050781 19.921875 -23.9375 L 19.875 -23.859375 C 19.101562 -24.085938 18.007812 -24.203125 16.59375 -24.203125 L 9.609375 -24.203125 L 9.609375 -18.546875 L 14.859375 -18.546875 C 16.484375 -18.546875 17.457031 -18.585938 17.78125 -18.671875 L 17.859375 -13.203125 C 17.148438 -13.273438 16.234375 -13.3125 15.109375 -13.3125 L 9.609375 -13.3125 L 9.609375 -5.328125 Z M 18.65625 -5.328125 "/></g></g></g><g fill="#6a0032" fill-opacity="1"><g transform="translate(193.506551, 232.24604)"><g><path d="M 8.140625 0 C 5.960938 0 4.519531 0.046875 3.8125 0.140625 L 3.8125 -29.625 C 4.164062 -29.539062 4.898438 -29.5 6.015625 -29.5 C 7.140625 -29.5 8.4375 -29.53125 9.90625 -29.59375 L 9.90625 -5.328125 L 14.5 -5.328125 C 15.832031 -5.328125 16.898438 -5.367188 17.703125 -5.453125 C 17.597656 -1.992188 17.546875 -0.195312 17.546875 -0.0625 L 17.546875 0.15625 C 16.097656 0.0507812 13.664062 0 10.25 0 Z M 8.140625 0 "/></g></g></g><path stroke-linecap="butt" transform="matrix(0.748733, 0, 0, 0.748733, 4.343122, 190.367322)" fill="none" stroke-linejoin="miter" d="M 0.000838523 1.997988 L 383.998457 1.997988 " stroke="#6a0032" stroke-width="4" stroke-opacity="1" stroke-miterlimit="4"/></svg>